<svg width="24" height="24" viewBox="0 0 24 24" fill="none" xmlns="http://www.w3.org/2000/svg">
<path fill-rule="evenodd" clip-rule="evenodd" d="M16 8.64978V7.60828C16 5.61886 14.2054 4 12 4C9.79458 4 8 5.61886 8 7.60828V8.64978C8 10.6411 9.79458 12.2581 12 12.2581C14.2054 12.2581 16 10.6411 16 8.64978ZM17.3793 20C17.7228 20 18 19.7289 18 19.3928V17.571C18 15.4252 16.5766 13.6036 14.6027 12.9619C13.8476 13.4355 12.9517 13.7087 11.9917 13.7087C11.0338 13.7087 10.14 13.4374 9.38687 12.9658C7.41927 13.6094 6 15.4292 6 17.5708V19.3927C6 19.7289 6.27722 20 6.6207 20H17.3793Z" fill="#FF6948"/>
</svg>
