<svg width="24" height="24" viewBox="0 0 24 24" fill="none" xmlns="http://www.w3.org/2000/svg">
<path fill-rule="evenodd" clip-rule="evenodd" d="M16.5 9.33333H15.75V7.80952C15.75 5.67619 14.1 4 12 4C9.9 4 8.25 5.67619 8.25 7.80952V9.33333H7.5C6.675 9.33333 6 10.019 6 10.8571V18.4762C6 19.3143 6.675 20 7.5 20H16.5C17.325 20 18 19.3143 18 18.4762V10.8571C18 10.019 17.325 9.33333 16.5 9.33333ZM12.5878 14.4041C12.9955 14.1917 13.2738 13.7653 13.2738 13.2738C13.2738 12.5703 12.7036 12 12.0001 12C11.2966 12 10.7263 12.5703 10.7263 13.2738C10.7263 13.7651 11.0045 14.1915 11.412 14.404V15.4121C11.412 15.7368 11.6752 16 11.9999 16C12.3246 16 12.5878 15.7368 12.5878 15.4121V14.4041ZM14.325 9.33333H9.67505V7.80952C9.67505 6.51428 10.725 5.44761 12 5.44761C13.275 5.44761 14.325 6.51428 14.325 7.80952V9.33333Z" fill="#FF6948"/>
</svg>
